<svg xmlns="http://www.w3.org/2000/svg" viewBox="0 0 595.28 220.71"><defs><style>.cls-1{fill:#fff;}.cls-2,.cls-4,.cls-5{fill:none;stroke-miterlimit:10;}.cls-2{stroke:#5c5d60;}.cls-2,.cls-5{stroke-width:0.5px;}.cls-3{fill:#5c5d60;}.cls-4,.cls-5{stroke:#231f20;}.cls-6{font-size:6.93px;}.cls-12,.cls-14,.cls-6,.cls-9{fill:#010101;}.cls-6,.cls-9{font-family:TimesNewRomanPS-ItalicMT, Times New Roman;font-style:italic;}.cls-7{letter-spacing:0em;}.cls-8{letter-spacing:-0.01em;}.cls-12,.cls-14,.cls-9{font-size:11.99px;}.cls-10{letter-spacing:0em;}.cls-11{font-size:12px;fill:#231f20;font-family:MyriadPro-Regular, Myriad Pro;}.cls-12{font-family:TimesNewRomanPSMT, Times New Roman;}.cls-13{letter-spacing:0em;}.cls-14{font-family:SymbolMT, Symbol;}.cls-15{letter-spacing:-0.01em;}.cls-16{letter-spacing:-0.02em;}</style></defs><g id="Layer_2" data-name="Layer 2"><g id="Layer_1-2" data-name="Layer 1"><rect class="cls-1" y="51.25" width="595.28" height="50.27"/><line class="cls-1" x1="88.87" y1="120.35" x2="514" y2="120.35"/><line class="cls-2" x1="88.87" y1="120.35" x2="507.36" y2="120.35"/><polygon class="cls-3" points="505.87 122.44 514 120.26 505.87 118.08 505.87 122.44"/><path class="cls-4" d="M488.51,116.75a117,117,0,0,1-22.16-2.32c-5.89-1.23-12.2-2.7-17.21-6.21a29.24,29.24,0,0,1-6.49-6.12c-1-1.35-2.15-4.7-4-4.91-2.32-.25-5.8,5.52-7.32,6.87-4.85,4.33-11.44,7.17-17.75,8.51-11.62,2.49-24.23,2.92-36.08,3.52-10.17.52-20.33.2-30.5.32l-26.29.33q-45.74.54-91.48-.09c-16.27-.2-33.21-.22-49.16-2.34-10.73-1.44-22.85-3.44-31.34-10.77-2.19-1.9-3.95-5.93-7.39-5.63-2.44.2-3.27,3.24-4.23,5.06a14.71,14.71,0,0,1-4.74,5.61c-7.83,5.31-17,7.21-26.32,7.48-4.09.12-8.06.35-12.18.35h-5"/><path class="cls-4" d="M488.4,111.87c-28.54-4.28-35.5-22.47-40.71-35S442,48,441,40.31s-3.47-5.47-10.67,4.29S415.43,62.34,400,74s-40.21,22-62.8,29.57-83.39,25.29-108,32.68-54.35,21.29-66.52,27.35-16.38,3.55-17.37.74-3.23-12.12-3.23-12.12c-3.72-33-48.31-31.05-48.31-31.05l-5,.35"/><path class="cls-4" d="M488.4,115c-12.41-1.18-24.08-4.58-33.76-13.46S443,74.76,440.74,63.08s-5-9-8.93-5.32S418.4,69.29,401,80.53s-48.4,21.29-54.6,23.36-90.85,26.32-97.3,28.68-41.45,15.09-53.37,20-34.5,23.37-41.45,28.69-6.95,5.62-9.43,3.25-3.22-14.77-3.72-20c-.89-9.32-1.6-21.93-10.42-26.91-14.47-8.17-36.9-13.31-36.9-13.31l-5-.91"/><line class="cls-5" x1="288.86" y1="116.97" x2="288.86" y2="124.29"/><line class="cls-5" x1="317.37" y1="116.97" x2="317.37" y2="124.29"/><line class="cls-5" x1="345.87" y1="116.97" x2="345.87" y2="124.29"/><line class="cls-5" x1="374.38" y1="116.97" x2="374.38" y2="124.29"/><line class="cls-5" x1="402.88" y1="116.97" x2="402.88" y2="124.29"/><line class="cls-5" x1="431.39" y1="116.97" x2="431.39" y2="124.29"/><line class="cls-5" x1="459.89" y1="116.97" x2="459.89" y2="124.29"/><line class="cls-5" x1="488.4" y1="116.97" x2="488.4" y2="124.29"/><line class="cls-5" x1="203.35" y1="116.97" x2="203.35" y2="124.29"/><line class="cls-5" x1="231.85" y1="116.97" x2="231.85" y2="124.29"/><line class="cls-5" x1="260.36" y1="116.97" x2="260.36" y2="124.29"/><line class="cls-5" x1="117.83" y1="116.97" x2="117.83" y2="124.29"/><line class="cls-5" x1="146.33" y1="116.97" x2="146.33" y2="124.29"/><line class="cls-5" x1="174.84" y1="116.97" x2="174.84" y2="124.29"/><line class="cls-1" x1="88.87" y1="220.71" x2="88.87" y2="13.71"/><line class="cls-2" x1="88.87" y1="220.71" x2="88.87" y2="20.35"/><polygon class="cls-3" points="90.96 21.84 88.78 13.71 86.6 21.84 90.96 21.84"/><line class="cls-2" x1="88.95" y1="103.23" x2="84.43" y2="103.23"/><line class="cls-2" x1="88.95" y1="120.56" x2="84.43" y2="120.56"/><line class="cls-2" x1="88.95" y1="85.9" x2="84.43" y2="85.9"/><line class="cls-2" x1="88.95" y1="68.58" x2="84.43" y2="68.58"/><line class="cls-2" x1="88.95" y1="51.25" x2="84.43" y2="51.25"/><line class="cls-2" x1="88.95" y1="33.92" x2="84.43" y2="33.92"/><line class="cls-2" x1="88.95" y1="172.55" x2="84.43" y2="172.55"/><line class="cls-2" x1="88.95" y1="207.21" x2="84.43" y2="207.21"/><line class="cls-2" x1="88.95" y1="189.88" x2="84.43" y2="189.88"/><line class="cls-2" x1="88.95" y1="155.22" x2="84.43" y2="155.22"/><line class="cls-2" x1="88.95" y1="137.89" x2="84.43" y2="137.89"/><text class="cls-6" transform="translate(159.93 104.78)"><tspan class="cls-7">s</tspan><tspan class="cls-8" x="2.69" y="0">c</tspan><tspan x="5.72" y="0">at</tspan></text><text class="cls-9" transform="translate(151.58 101.69)">Q</text><text class="cls-6" transform="translate(164.2 196.18)">g<tspan class="cls-7" x="3.47" y="0">r</tspan><tspan x="6.15" y="0">ad</tspan></text><text class="cls-9" transform="translate(155.67 193.08)">Q</text><text class="cls-6" transform="translate(159.68 156.77)"><tspan class="cls-10">t</tspan><tspan x="1.93" y="0">ot</tspan></text><text class="cls-9" transform="translate(151.65 153.67)">Q</text><text class="cls-11" transform="translate(285 137.89)">0</text><text class="cls-12" transform="translate(478.03 135.58)">1.4</text><text class="cls-12" transform="translate(493.03 135.58)"><tspan class="cls-13">μ</tspan><tspan x="6.38" y="0">m</tspan></text><text class="cls-14" transform="translate(471.46 135.58)">+</text><text class="cls-12" transform="translate(105.32 97.18)">1.4</text><text class="cls-12" transform="translate(120.32 97.18)"><tspan class="cls-13">μ</tspan><tspan x="6.38" y="0">m</tspan></text><text class="cls-14" transform="translate(98.75 97.18)">-</text><text class="cls-12" transform="translate(57.16 54.61)">0.01</text><text class="cls-12" transform="translate(53.16 193.08)">-0.01</text><text class="cls-11" transform="translate(66 10.04)">efficaci<tspan class="cls-15" x="35.14" y="0">t</tspan><tspan x="39.04" y="0">é</tspan></text><text class="cls-11" transform="translate(516.5 123.29)">a<tspan class="cls-16" x="5.78" y="0">x</tspan><tspan x="11.16" y="0">e z</tspan></text></g></g></svg>