<svg xmlns="http://www.w3.org/2000/svg" viewBox="0 0 872.82 116.12"><g id="Layer_2" data-name="Layer 2"><g id="Layer_1-2" data-name="Layer 1"><path d="M102.45,102.84c-8,3-23.8-1.69-29.66-8.68-1-14.13-1.41-36.1,3.51-55.44,8.48-10.78,13-19.8,8.3-25.87A4.28,4.28,0,0,0,81,11.22a4.23,4.23,0,0,0-3.38,2,80.46,80.46,0,0,0-9.07,21.53c-4.47,5.53-10,11.6-15.34,17.51q-2,2.14-3.77,4.17c1.81-17.26,1.19-35-3.76-44.25a4.25,4.25,0,0,0-5.66-1.78c-23.68,12-28.28,41-32.34,66.59C5.76,89.29,3.92,100.92.29,110.33a4.25,4.25,0,0,0,3.84,5.78h.32a4.8,4.8,0,0,0,1.33-.19,4.3,4.3,0,0,0,1.06-.37l.17,0a4.26,4.26,0,0,0,3.56-4.66,4.17,4.17,0,0,0-.76-2c2.92-9.2,4.57-19.61,6.3-30.54,3.64-23,7.4-46.66,23.76-57.95,3.25,11.17,2.23,31.28-.75,47.92C31,78.2,27,85.16,28.71,90.68c.64,2.07,2.36,4.77,6.93,5.86a4.26,4.26,0,0,0,4.8-2.27C43,89,45.39,81,47.16,71.92c3.66-4.36,7.93-9.06,12.38-14,1.93-2.14,3.84-4.24,5.69-6.3a217.84,217.84,0,0,0-.82,44.4,4.22,4.22,0,0,0,.76,2.11c7.5,10.71,28.22,17.19,40.29,12.61a4.25,4.25,0,1,0-3-8ZM6.86,115.53h0Zm0,0Z"/><path d="M132.86,92.58c-3.51-2.89-6.27-2.06-7.65-1.26a6.66,6.66,0,0,0-2.81,7.28,4.87,4.87,0,0,0,4.47,3.93h.26a4.75,4.75,0,0,0,3.65-1.72l.17,0a4.25,4.25,0,0,0,1.91-8.28Z"/><path d="M570.94,24.44h-.17a15.1,15.1,0,0,0-3.84.88l-.62.2c-11.45,3.33-18.45,8.41-21.4,15.55-4.63,11.2,2.23,23.63,8.29,34.59,3,5.49,7.19,13,6.08,15.27-.24.48-1.28,1.11-3.49,1.51-13-.86-29.09-9.56-37.66-20.39-3.25-4.11-6.82-10.35-6.18-17.45a4.26,4.26,0,0,0-1.89-6.46c.05-6.77-2-12.31-6.22-15.89a4.27,4.27,0,0,0-1.73-.89,4.34,4.34,0,0,0-1.72-.22c-.6,0-1.21,0-1.81,0a29.27,29.27,0,0,0-4.21.14A7.32,7.32,0,0,0,492,32a23.19,23.19,0,0,0-7.14,5c-.88.81-1.7,1.57-2.5,2.17a4.25,4.25,0,0,0-.95,1c-11.9,17.3-18.52,33.46-19.7,48.06-.1.15-.19.29-.26.42a4.61,4.61,0,0,0-.78.85,5,5,0,0,0-1,.88l-.23.15c-1.87,1.34-5.1,1.55-7.86.5a6.66,6.66,0,0,1-3.78-3.15c2.14-8.15,1.57-16.36,1-24.31a98.1,98.1,0,0,1-.3-14.86,14.1,14.1,0,0,0,1.88-10.75,4.25,4.25,0,0,0-8.15-.49,39.64,39.64,0,0,0-2,8.24,46.27,46.27,0,0,1-5.75,5.64,61.6,61.6,0,0,0-4.63,4.3c-3.16,2.85-6.29,6-9.33,9-5.79,5.78-11.73,11.73-18.17,16.06-1.43-9.58-1.21-24.73,1-34.25a33.74,33.74,0,0,0,6-8,4.24,4.24,0,0,0,.9-2.62v-.37a4.25,4.25,0,0,0-4.25-4.25H405l-.43,0h-.15a6.69,6.69,0,0,0-2.29.51,4.16,4.16,0,0,0-1.27.85c-2.12,2.07-3.74,5.31-4.94,9.24-6.46,5.75-15.65,9.67-24,13.25l-2.42,1c-7.64.73-13.29-1.42-16.83-6.37a49.84,49.84,0,0,1,3.29-10.52,4.21,4.21,0,0,0,.32-2.24c-.61-5-2.09-16.59-9.18-15.78-6.82.79-7.39,12.44-6.74,18.49a33.47,33.47,0,0,0,3.38,11.68c-.78,5.1-1.06,10.18-1.35,15.41-.1,1.76-.2,3.54-.32,5.36a4.69,4.69,0,0,0,.1,1.24c.32,1.38-.24,3.32-1.07,5.4a25.27,25.27,0,0,0-6.86-5.25,4.24,4.24,0,0,0-1.75-.38h-.14l-.32,0c-3,.22-5.33.3-7.55.26a4.28,4.28,0,0,0-1.23.15c-6.45,1.8-11.73,5.72-16.84,9.5-6.68,4.94-12.47,9.24-19.81,8.4a11.56,11.56,0,0,1-5.22-5.64c17.72-10.4,24.68-25.38,24.72-35.12,0-6-2.62-10.47-6.92-11.57s-11.1.72-19.12,15.59a3.18,3.18,0,0,0-.16.32l-.89,2c-2.89,6.6-6.85,15.61-6.9,24a76,76,0,0,1-13.19,4.7,60.46,60.46,0,0,1-8.15-3.61c2.73-12,.9-24.63-5.14-32.41a4.16,4.16,0,0,0-.58-.61,16.89,16.89,0,0,0-9.4-4.15c17.23-12.47,26-24.4,24.63-33.76-.68-4.78-4-8.51-9.06-10.23-10-3.38-28.59.73-46.3,17.55a4.25,4.25,0,0,0-2.36,3.8v.28a4.94,4.94,0,0,0,9.5.89c14-12.7,29-17,36.43-14.46,3,1,3.29,2.79,3.37,3.37.64,4.51-4.88,14.16-22.49,26.59a4.79,4.79,0,0,0-.74.21,4.21,4.21,0,0,0-1.07.51,5,5,0,0,0-.74.35C213.33,45.1,206.06,65.85,207,82.59c.83,14.31,7.39,24.07,17.53,26.1a4,4,0,0,0,.84.08h.39c9.5-.88,17.61-7.54,22.26-18.26l0-.06a64.59,64.59,0,0,0,9.33,3.89,4.36,4.36,0,0,0,2.32.09,85.88,85.88,0,0,0,14-4.68c1.63,3.72,4.61,7.05,9.51,9.63a4.17,4.17,0,0,0,1.33.44c11.18,1.75,19.52-4.42,26.88-9.87,4.51-3.34,8.79-6.51,13.5-8,2,0,4.1,0,6.59-.21a25.23,25.23,0,0,1,5.93,5.91c-1.32,4.43-1.45,9.36,3.29,13.18a4.26,4.26,0,0,0,5.55-.18,9,9,0,0,0,2.6-8.37,18.59,18.59,0,0,0-2-5.6c.18-.42.38-.86.59-1.33,1.81-4,3.85-8.59,3.07-13.2.1-1.65.19-3.28.28-4.89.13-2.39.26-4.71.43-7,4.64,3.29,10.86,5.08,19,4.31h.18a4.26,4.26,0,0,0,1.69-.35l3.1-1.33A142.11,142.11,0,0,0,393.62,54c-1.41,13.21-.2,28.23,1.88,34.67a4.25,4.25,0,0,0,6,2.47c9.52-4.89,17.45-12.81,25.12-20.48,3.13-3.14,6.1-6.1,9.14-8.84a3.44,3.44,0,0,0,.27-.27c1.07-1.15,2.46-2.37,3.94-3.66.1,2.09.24,4.18.39,6.25.55,8,1.07,15.49-1.05,22.59a4.14,4.14,0,0,0-.07,2.18c1,4.54,4.46,8.21,9.36,10.06a17.56,17.56,0,0,0,15.05-1,5.28,5.28,0,0,0,2.19-1.63,4.56,4.56,0,0,0,.38-.31,4.62,4.62,0,0,0,1-1,5.63,5.63,0,0,0,1.26-1.5l.25-.25a4.09,4.09,0,0,0,.39-.44,3,3,0,0,0,.36-.51,14.63,14.63,0,0,0,2.43.87,4,4,0,0,0,1.09.14h1.59a15.09,15.09,0,0,0,3.91-.34c11.08-1.36,21.31-13.34,26.93-25.9a40,40,0,0,0,6,10.3c10.2,12.89,28.84,22.83,44.33,23.64H556a4.74,4.74,0,0,0,.65,0c5.16-.81,8.61-2.91,10.25-6.25,3.05-6.24-1.27-14.06-6.28-23.12-5.13-9.29-10.94-19.81-7.87-27.23,1.87-4.53,7.22-8.11,16-10.65.28-.08.57-.18.87-.28a11.28,11.28,0,0,1,1.61-.45c1.12,0,2.55.12,3.19.8,1.36,1.46.94,6.19.64,9.64-.15,1.7-.3,3.46-.32,5.11v.32A4.25,4.25,0,0,0,579,53h.13a4.27,4.27,0,0,0,4.25-4,4.92,4.92,0,0,0-.1-1.36c0-1.09.15-2.31.26-3.58.5-5.61,1.06-12-2.89-16.19C578.38,25.54,575.13,24.36,570.94,24.44ZM240.26,87.12c-1.94,4.46-6.38,12-14.61,13.1-8.29-2.16-9.84-13.34-10.12-18.13,0-.31,0-.63-.05-1a4.31,4.31,0,0,0,2.57.48c10.29-1.35,16,1.19,22.52,4.74ZM242.9,78c-5.46-2.87-11.23-5.21-19.45-5.21-1.36,0-2.78.06-4.28.2-3-4.3.26-10.17,2.92-13.2,3.76-4.28,11.34-8.87,17.07-4.33C243,60.65,244.29,69.43,242.9,78Zm43.88-17.41.83-1.89c5.14-9.49,8.59-11,9.36-11.18.46.71,1.11,3.25,0,7.57-1.71,6.71-6.71,14.48-15.83,20.91C282.15,71.46,284.26,66.29,286.78,60.54Zm213-2.56c-4.28,13.59-14.59,25.73-22.53,26.52a3.93,3.93,0,0,0-.83.16,7.55,7.55,0,0,1-1.77.09h-1.05a6,6,0,0,1-1.66-.87,3.88,3.88,0,0,0-1-1.14c2.18-11.36,7.88-23.85,17-37.24.91-.73,1.75-1.51,2.57-2.26,1.6-1.47,3.11-2.86,4.58-3.38l.42-.17a23.36,23.36,0,0,1,2.82,0h.8C502.12,43.2,502.37,49.9,499.82,58Z"/><path d="M868.86,91.19a6.59,6.59,0,0,0-3.6.93l-.14.08A4.23,4.23,0,0,0,863,94.34,35.78,35.78,0,0,1,850.17,101c-10.88,1.61-17.94.77-21-2.48-3.56-3.82-2.67-12.29-.67-22.17a30.13,30.13,0,0,0,2.12-10,4.25,4.25,0,0,0-8.39-1.15c-.67,3-1.33,5.87-1.91,8.68-3.57,7.61-12.13,10.29-24.33,13.5-6.88,1.82-14,3.69-19.8,7.28-4.82-.13-6-2.47-6.4-4.79-.57-2.93-.07-6.58,1.1-10.34,7.27-5.21,17.55-14.39,17.84-24.75a4.26,4.26,0,0,0-5.68-4.13C775.64,53.33,768,63.5,764,74c-14.18,9.5-31.94,14.88-39.74,12a5.27,5.27,0,0,0-.68-.19c-3.14-1.57-3.71-3.65-3.84-5.31-.47-5.93,4.64-14.67,10.64-22,7-2.32,12.79-6.61,14.82-14.93a4.25,4.25,0,0,0-4.13-5.25h-.26a4.25,4.25,0,0,0-2.34.7,71.22,71.22,0,0,0-12.88,12c-4.63,1.16-10.43,1.62-17,2l-1.14.07a27.36,27.36,0,0,0-.39-2.76,4.5,4.5,0,0,0-.33-1c-7.21-15.13-16.78-14.8-20.3-14.06a4.25,4.25,0,0,0-5.95.18c-1.24,1.3-3.84,1.79-6.59,2.32-4,.75-8.85,1.69-12.42,5.58-9.06,6-16.19,16.6-18.69,27.94A37.56,37.56,0,0,0,642.36,86c-19.7,4.81-36.89,2.56-43.47-6.2-6.1-8.11-3-21.83,8.77-38.63,4.21-6.05,20-9.7,26.75-6.19,1,.49,2.76,1.42,2.35,4.69a6.41,6.41,0,0,0-1.09,4v.2a4.25,4.25,0,0,0,4.25,4.21h.13a4.26,4.26,0,0,0,4-2.81c4.1-11.35-2.65-16.3-5.74-17.89-10.59-5.48-31-.66-37.64,8.87-18,25.7-14.6,40.62-8.59,48.61S609.26,97,623.15,97a89.9,89.9,0,0,0,21.85-3,28.11,28.11,0,0,0,1.68,3,3.74,3.74,0,0,0,.46.59c8.77,9.4,19.89,11.36,31.33,5.54,14.29-7.29,26.22-25.57,28.63-41.61l1.93-.1c3-.17,6.06-.34,9.15-.65-4.36,6.8-7.41,14.09-6.92,20.37.46,5.72,3.66,10.08,9.27,12.61l.31.12a4.38,4.38,0,0,0,1.17.32c10.06,3.23,25.91-1.43,39.2-8.65a22.27,22.27,0,0,0,.27,5.9c1.5,7.76,7.41,12,16.19,11.67a4.38,4.38,0,0,0,2.22-.73c4.8-3.25,11.36-5,18.31-6.82,6.64-1.75,14.06-3.7,20.13-7.52-.28,6.58.85,12.13,4.65,16.22s9.47,6,17.69,6a74.5,74.5,0,0,0,11.05-.93,3.45,3.45,0,0,0,.54-.11c7-2,13.4-5.55,17.68-9.75l.26-.15a4.25,4.25,0,0,0-1.34-8.16ZM674.61,95.6c-7.87,4-14.93,2.83-21-3.48-.1-.17-.19-.34-.29-.5l.76-.25a4,4,0,0,0,1.09-.56,4.74,4.74,0,0,0,.72-.61,4.49,4.49,0,0,0,.88-.68h0c.15-.09.35-.21.56-.36a4.51,4.51,0,0,0,1.13-.59l.25-.18.26-.21a5.33,5.33,0,0,0,1.38-2c.27-.33.63-.71,1-1.08a19.59,19.59,0,0,0,2.43-3,4.25,4.25,0,0,0-7.25-4.45,13.72,13.72,0,0,1-1.4,1.66A21,21,0,0,0,653,81.74a3.89,3.89,0,0,0-.5.41l-.12.07a7.94,7.94,0,0,0-1.11.76,5.55,5.55,0,0,0-.76.55,29.85,29.85,0,0,1,.5-10.48c2.05-9.28,8.12-18.28,15.46-22.92a4.47,4.47,0,0,0,1-.88c1.65-2,4.56-2.56,7.93-3.2l1.08-.21a12,12,0,0,0,0,2.16c.19,2.87,2.18,12.42,19.7,14.56a4.3,4.3,0,0,0,1.29,0l.88-.15C695.68,75.19,685.75,89.92,674.61,95.6ZM696.6,54c-8.32-1.15-11.48-4.25-11.64-6.61a4,4,0,0,1,3-3.88,4.31,4.31,0,0,1,1.1-.13c2.71,0,6.37,2.34,9.67,9,.07.42.12.85.16,1.29Q697.74,53.85,696.6,54Z"/><path d="M838.88,23a8.8,8.8,0,0,0,3.5.76,5.62,5.62,0,0,0,4.46-1.92,4.91,4.91,0,0,0,1.06-4,4.28,4.28,0,0,0-4.25-4.29l.3,0a3.48,3.48,0,0,0-.55,0h-.07a4.68,4.68,0,0,0-1.22.22l-1.7-.33a3.71,3.71,0,0,0-.81-.08h-.26A4.25,4.25,0,0,0,835.12,17C834.85,19,835.69,21.59,838.88,23Zm5.74-9.29a3,3,0,0,0-.59-.13A2.74,2.74,0,0,1,844.62,13.7Z"/><path d="M843.4,13.52h0Z"/></g></g></svg>